<svg width="16" height="16" viewBox="0 0 16 16" fill="none" xmlns="http://www.w3.org/2000/svg">
<path fill-rule="evenodd" clip-rule="evenodd" d="M11.1391 1.93819C11.5267 1.55093 12.0521 1.33337 12.6 1.33337C13.1481 1.33337 13.6738 1.55112 14.0614 1.93871C14.449 2.3263 14.6667 2.85198 14.6667 3.40011C14.6667 3.94809 14.4491 4.47363 14.0617 4.86119C14.0616 4.8613 14.0618 4.86108 14.0617 4.86119L13.219 5.70697C13.1956 5.74145 13.1686 5.77423 13.1381 5.80478C13.1081 5.83474 13.076 5.86126 13.0422 5.88432L8.47225 10.4707C8.34715 10.5962 8.17722 10.6668 8 10.6668H6C5.63181 10.6668 5.33333 10.3683 5.33333 10.0001V8.00011C5.33333 7.82289 5.4039 7.65296 5.52944 7.52787L10.1154 2.95824C10.1385 2.92432 10.1652 2.89207 10.1953 2.86197C10.2259 2.83129 10.2589 2.80422 10.2935 2.78077L11.1386 1.93871C11.1388 1.93854 11.1389 1.93836 11.1391 1.93819ZM10.6742 4.28371L6.66667 8.27695V9.33345H7.72316L11.7164 5.32592L10.6742 4.28371ZM12.6575 4.38142L11.6187 3.34259L12.0814 2.88152C12.2189 2.74398 12.4055 2.66671 12.6 2.66671C12.7945 2.66671 12.9811 2.74398 13.1186 2.88152C13.2561 3.01906 13.3334 3.2056 13.3334 3.40011C13.3334 3.59462 13.2561 3.78117 13.1186 3.91871L12.6575 4.38142ZM2.58579 4.58583C2.96086 4.21075 3.46957 4.00004 4 4.00004H4.66667C5.03486 4.00004 5.33333 4.29852 5.33333 4.66671C5.33333 5.0349 5.03486 5.33337 4.66667 5.33337H4C3.82319 5.33337 3.65362 5.40361 3.5286 5.52864C3.40357 5.65366 3.33333 5.82323 3.33333 6.00004V12C3.33333 12.1769 3.40357 12.3464 3.5286 12.4714C3.65362 12.5965 3.82319 12.6667 4 12.6667H10C10.1768 12.6667 10.3464 12.5965 10.4714 12.4714C10.5964 12.3464 10.6667 12.1769 10.6667 12V11.3334C10.6667 10.9652 10.9651 10.6667 11.3333 10.6667C11.7015 10.6667 12 10.9652 12 11.3334V12C12 12.5305 11.7893 13.0392 11.4142 13.4143C11.0391 13.7893 10.5304 14 10 14H4C3.46957 14 2.96086 13.7893 2.58579 13.4143C2.21071 13.0392 2 12.5305 2 12V6.00004C2 5.46961 2.21071 4.9609 2.58579 4.58583Z" fill="#2797BA"/>
</svg>
