<svg width="16" height="16" viewBox="0 0 16 16" fill="none" xmlns="http://www.w3.org/2000/svg">
<path fill-rule="evenodd" clip-rule="evenodd" d="M6.66732 2.66671C4.45818 2.66671 2.66732 4.45757 2.66732 6.66671C2.66732 8.87585 4.45818 10.6667 6.66732 10.6667C8.87646 10.6667 10.6673 8.87585 10.6673 6.66671C10.6673 4.45757 8.87646 2.66671 6.66732 2.66671ZM1.33398 6.66671C1.33398 3.72119 3.7218 1.33337 6.66732 1.33337C9.61284 1.33337 12.0007 3.72119 12.0007 6.66671C12.0007 7.89918 11.5826 9.03401 10.8806 9.93714L14.4721 13.5286C14.7324 13.789 14.7324 14.2111 14.4721 14.4714C14.2117 14.7318 13.7896 14.7318 13.5292 14.4714L9.93775 10.8799C9.03462 11.582 7.89979 12 6.66732 12C3.7218 12 1.33398 9.61223 1.33398 6.66671Z" fill="#6D768B"/>
</svg>
