<svg width="16" height="16" viewBox="0 0 16 16" fill="none" xmlns="http://www.w3.org/2000/svg">
<path fill-rule="evenodd" clip-rule="evenodd" d="M5.72386 1.7239C5.97391 1.47385 6.31304 1.33337 6.66667 1.33337H9.33333C9.68696 1.33337 10.0261 1.47385 10.2761 1.7239C10.5262 1.97395 10.6667 2.31309 10.6667 2.66671V4.00004H12.6589C12.6636 3.99999 12.6683 3.99999 12.673 4.00004H13.3333C13.7015 4.00004 14 4.29852 14 4.66671C14 5.0349 13.7015 5.33337 13.3333 5.33337H13.2801L12.6664 12.6972C12.6585 13.2166 12.4488 13.713 12.0809 14.0809C11.7058 14.456 11.1971 14.6667 10.6667 14.6667H5.33333C4.8029 14.6667 4.29419 14.456 3.91912 14.0809C3.55125 13.713 3.34148 13.2166 3.33357 12.6972L2.71991 5.33337H2.66667C2.29848 5.33337 2 5.0349 2 4.66671C2 4.29852 2.29848 4.00004 2.66667 4.00004H3.32702C3.33174 3.99999 3.33644 3.99999 3.34113 4.00004H5.33333V2.66671C5.33333 2.31309 5.47381 1.97395 5.72386 1.7239ZM4.05787 5.33337L4.66436 12.6113C4.6659 12.6298 4.66667 12.6482 4.66667 12.6667C4.66667 12.8435 4.7369 13.0131 4.86193 13.1381C4.98695 13.2631 5.15652 13.3334 5.33333 13.3334H10.6667C10.8435 13.3334 11.013 13.2631 11.1381 13.1381C11.2631 13.0131 11.3333 12.8435 11.3333 12.6667C11.3333 12.6482 11.3341 12.6298 11.3356 12.6113L11.9421 5.33337H4.05787ZM9.33333 4.00004H6.66667V2.66671H9.33333V4.00004ZM6.66667 6.66671C7.03486 6.66671 7.33333 6.96518 7.33333 7.33337V11.3334C7.33333 11.7016 7.03486 12 6.66667 12C6.29848 12 6 11.7016 6 11.3334V7.33337C6 6.96518 6.29848 6.66671 6.66667 6.66671ZM9.33333 6.66671C9.70152 6.66671 10 6.96518 10 7.33337V11.3334C10 11.7016 9.70152 12 9.33333 12C8.96514 12 8.66667 11.7016 8.66667 11.3334V7.33337C8.66667 6.96518 8.96514 6.66671 9.33333 6.66671Z" fill="#2797BA"/>
</svg>
